<svg width="545" height="211" viewBox="0 0 545 211" fill="none" xmlns="http://www.w3.org/2000/svg">
<path d="M24.5001 210.7C17.2667 210.7 11.3167 208.6 6.65005 204.4C2.21672 200.2 0.466716 193.9 1.40005 185.5C1.63338 182.467 2.33338 179.317 3.50005 176.05C4.90005 172.55 6.41672 169.167 8.05005 165.9C9.45005 162.633 10.85 161 12.25 161C13.4167 161 13.5334 161.933 12.6 163.8C9.56672 170.1 8.05005 175.7 8.05005 180.6C8.05005 185.733 9.80005 189.583 13.3001 192.15C17.0334 194.717 21.8167 196 27.65 196C39.0834 196 51.6834 192.383 65.4501 185.15C79.2167 177.683 93.4501 168.233 108.15 156.8C122.85 145.133 136.967 133 150.5 120.4C141.4 119.933 132.883 119.467 124.95 119C117.017 118.533 110.017 118.3 103.95 118.3C98.8167 118.3 92.6334 118.767 85.4001 119.7C78.1667 120.633 72.5667 123.083 68.6001 127.05C66.9667 128.683 65.4501 131.133 64.05 134.4C62.8834 137.433 62.3001 140.583 62.3001 143.85C62.3001 144.783 62.3001 145.717 62.3001 146.65C62.5334 147.35 62.7667 148.167 63.0001 149.1C62.0667 148.633 60.3167 148.283 57.7501 148.05C55.4167 147.583 53.9001 146.067 53.2001 143.5C52.9667 142.8 52.8501 141.633 52.8501 140C52.8501 136.267 54.2501 133.233 57.0501 130.9C59.8501 128.333 63.2334 126.117 67.2001 124.25C71.1667 122.383 74.7834 120.75 78.0501 119.35C85.7501 116.083 93.6834 113.4 101.85 111.3C110.017 109.2 118.3 108.15 126.7 108.15C136.267 108.15 148.167 108.5 162.4 109.2C173.367 98.4666 183.517 88.3166 192.85 78.7499C202.183 69.1833 209.767 61.2499 215.6 54.9499C223.767 46.3166 232.4 38.9666 241.5 32.8999C250.833 26.5999 260.283 22.1666 269.85 19.5999H250.6C242.433 19.5999 233.567 19.9499 224 20.6499C214.433 21.3499 205.45 22.8666 197.05 25.2C188.65 27.5333 181.65 31.0333 176.05 35.6999C172.55 38.7333 169.867 42.2333 168 46.1999C166.367 49.9333 165.55 53.4333 165.55 56.6999C165.55 61.1333 166.833 64.1666 169.4 65.7999C169.633 65.7999 169.75 65.9166 169.75 66.1499C169.75 66.8499 168.933 67.6666 167.3 68.5999C165.667 69.2999 164.5 69.4166 163.8 68.9499C161.467 67.3166 159.367 64.0499 157.5 59.1499C155.867 54.0166 155.283 49.9333 155.75 46.8999C156.917 39.6666 160.067 33.8333 165.2 29.3999C170.567 24.7333 177.1 21.1166 184.8 18.5499C192.733 15.9833 201.017 14.2333 209.65 13.2999C218.517 12.3666 226.917 11.7833 234.85 11.5499C243.017 11.3166 249.9 11.1999 255.5 11.1999H293.65C294.117 11.1999 294.233 11.3166 294 11.5499C299.833 8.98328 305.9 6.41661 312.2 3.84994C318.733 1.28327 324.333 -5.65052e-05 329 -5.65052e-05C330.167 -5.65052e-05 331.333 0.349946 332.5 1.04995C333.9 1.74994 334.6 2.44994 334.6 3.14994C334.6 4.31661 332.267 4.89994 327.6 4.89994C325.267 4.89994 322.817 5.36661 320.25 6.29995C317.917 6.99994 314.767 9.44993 310.8 13.6499C307.533 16.9166 303.45 22.1666 298.55 29.3999C293.65 36.6333 288.283 45.1499 282.45 54.9499C276.617 64.5166 270.783 74.7833 264.95 85.7499C259.117 96.4833 253.517 107.1 248.15 117.6C242.783 128.1 238.117 137.783 234.15 146.65C233.683 148.05 232.4 151.317 230.3 156.45C228.2 161.35 226.217 166.833 224.35 172.9C222.483 178.733 221.55 183.983 221.55 188.65C221.55 194.95 223.767 198.1 228.2 198.1C230.3 198.1 232.4 197.633 234.5 196.7C237.533 195.533 240.683 193.783 243.95 191.45C247.217 189.117 250.367 186.433 253.4 183.4C259.467 177.567 264.6 171.967 268.8 166.6C273 161 275.567 157.617 276.5 156.45C277.2 155.283 278.017 154.7 278.95 154.7C279.883 154.7 280.35 155.283 280.35 156.45C280.35 157.15 280 158.083 279.3 159.25C277.667 161.583 274.633 165.667 270.2 171.5C265.767 177.1 260.517 182.817 254.45 188.65C248.617 194.483 242.317 198.917 235.55 201.95C233.45 202.883 231.233 203.583 228.9 204.05C226.567 204.75 224.233 205.1 221.9 205.1C217.233 205.1 212.917 203.467 208.95 200.2C205.217 196.933 203.35 191.567 203.35 184.1C203.35 177.333 204.633 170.1 207.2 162.4C210 154.467 212.567 148.05 214.9 143.15C219.567 133.117 225.05 121.917 231.35 109.55C237.883 97.1833 244.533 84.8166 251.3 72.4499C258.3 60.0833 264.717 48.8833 270.55 38.8499C276.383 28.8166 281.167 21.3499 284.9 16.4499C281.167 16.4499 276.15 17.9666 269.85 20.9999C263.55 23.8 256.783 27.6499 249.55 32.5499C242.55 37.2166 236.017 42.6999 229.95 48.9999C222.717 56.4666 214.317 65.5666 204.75 76.2999C195.417 87.0333 185.267 98.2333 174.3 109.9C179.667 110.133 185.033 110.367 190.4 110.6C195.767 110.6 201.133 110.6 206.5 110.6C210.233 110.6 214.317 110.25 218.75 109.55C223.417 108.617 227.733 107.217 231.7 105.35C231.7 105.35 231 106.633 229.6 109.2C228.433 111.533 226.333 113.983 223.3 116.55C220.5 118.883 216.65 120.283 211.75 120.75C207.317 120.983 202.883 121.217 198.45 121.45C194.017 121.45 189.583 121.45 185.15 121.45C181.417 121.45 177.683 121.45 173.95 121.45C170.45 121.45 166.95 121.333 163.45 121.1C152.717 132.3 141.517 143.267 129.85 154C118.183 164.5 106.4 174.067 94.5 182.7C82.6001 191.333 70.7001 198.1 58.8 203C47.1334 208.133 35.7001 210.7 24.5001 210.7ZM295.602 207.55C291.402 207.55 286.969 206.967 282.302 205.8C277.636 204.633 273.436 202.767 269.702 200.2C266.202 197.4 263.869 193.667 262.702 189C262.469 188.3 262.352 187.25 262.352 185.85C262.352 182.583 263.052 178.967 264.452 175C266.086 171.033 268.069 168.233 270.402 166.6C271.336 166.133 272.036 166.133 272.502 166.6C273.202 167.067 273.319 167.533 272.852 168C272.619 168.7 272.269 169.633 271.802 170.8C271.336 171.733 270.986 172.783 270.752 173.95C270.052 180.017 271.336 185.383 274.602 190.05C276.002 191.917 277.636 193.667 279.502 195.3C281.602 196.933 283.586 198.333 285.452 199.5C287.086 200.433 289.069 201.133 291.402 201.6C293.736 201.833 296.069 201.95 298.402 201.95C302.136 201.95 305.752 201.483 309.252 200.55C312.752 199.617 315.319 198.1 316.952 196C319.986 192.267 321.502 188.067 321.502 183.4C321.502 179.9 320.569 176.167 318.702 172.2C316.836 168.233 313.919 164.033 309.952 159.6C307.386 156.8 304.936 153.767 302.602 150.5C300.269 147.233 298.752 143.733 298.052 140C297.819 139.3 297.586 138.6 297.352 137.9C297.352 137.2 297.352 136.5 297.352 135.8C294.319 140.233 291.169 144.433 287.902 148.4C284.869 152.133 282.186 155.4 279.852 158.2C278.919 159.6 278.102 160.3 277.402 160.3C276.936 160.3 276.702 159.833 276.702 158.9C276.702 156.8 277.636 154.583 279.502 152.25C281.369 150.15 283.469 147.583 285.802 144.55C288.136 141.283 290.002 138.717 291.402 136.85C295.369 131.017 298.286 126.467 300.152 123.2C302.252 119.7 304.469 116.55 306.802 113.75C309.369 110.717 312.519 108.267 316.252 106.4C320.219 104.533 324.302 103.6 328.502 103.6C333.402 103.6 337.836 104.417 341.802 106.05C346.002 107.45 348.219 111.183 348.452 117.25C348.452 120.05 347.869 122.967 346.702 126C345.769 128.8 344.719 131.483 343.552 134.05C342.852 135.45 341.802 136.5 340.402 137.2C339.236 137.667 338.652 137.433 338.652 136.5C338.652 135.567 338.769 134.517 339.002 133.35C339.236 132.183 339.352 131.133 339.352 130.2C339.352 126.233 338.652 122.733 337.252 119.7C336.086 116.433 334.336 114.1 332.002 112.7C329.669 111.067 327.219 110.25 324.652 110.25C320.919 110.25 317.302 111.767 313.802 114.8C310.302 117.6 308.552 121.333 308.552 126C308.552 126.467 308.552 127.05 308.552 127.75C308.552 128.45 308.669 129.033 308.902 129.5C309.836 133.233 312.636 137.433 317.302 142.1C321.969 146.767 325.586 150.85 328.152 154.35C332.586 160.417 334.802 166.6 334.802 172.9C334.802 179.2 332.936 185.033 329.202 190.4C325.702 195.533 320.919 199.617 314.852 202.65C309.019 205.917 302.602 207.55 295.602 207.55ZM403.55 203C401.217 203 399.233 202.533 397.6 201.6C395.967 200.667 395.15 198.917 395.15 196.35C395.15 193.083 395.967 189.35 397.6 185.15C399.233 180.95 401.1 176.867 403.2 172.9C405.3 168.7 407.167 165.317 408.8 162.75C400.633 171.383 392.117 179.55 383.25 187.25C378.817 190.983 373.917 194.483 368.55 197.75C363.183 201.017 357.467 202.65 351.4 202.65C349.067 202.65 347.433 201.95 346.5 200.55C345.567 198.917 345.1 197.05 345.1 194.95C345.1 193.783 345.217 192.967 345.45 192.5C346.617 183.4 349.533 173.95 354.2 164.15C358.867 154.35 364.583 145.133 371.35 136.5C378.117 127.867 385 120.867 392 115.5C399.933 109.433 408.683 106.4 418.25 106.4H458.5C459.667 106.4 460.25 106.867 460.25 107.8C460.25 109.667 459.2 110.6 457.1 110.6C454.767 110.6 452.433 112.117 450.1 115.15C447.767 117.95 446.017 120.283 444.85 122.15C443.217 124.717 440.65 129.033 437.15 135.1C433.65 141.167 430.033 147.817 426.3 155.05C422.8 162.05 419.767 168.583 417.2 174.65C414.633 180.717 413.35 185.15 413.35 187.95C413.35 191.217 414.983 192.85 418.25 192.85C421.75 192.85 425.717 191.217 430.15 187.95C434.583 184.683 439.017 180.717 443.45 176.05C448.117 171.15 452.317 166.367 456.05 161.7C460.017 156.8 463.167 152.95 465.5 150.15C466.9 151.55 466.783 153.533 465.15 156.1C463.75 158.433 462.467 160.3 461.3 161.7C456.633 167.767 451.267 174.067 445.2 180.6C439.133 186.9 432.483 192.267 425.25 196.7C418.25 200.9 411.017 203 403.55 203ZM365.75 190.75C368.55 190.75 372.4 188.767 377.3 184.8C382.433 180.6 387.917 175.467 393.75 169.4C399.583 163.1 405.067 156.567 410.2 149.8C415.333 142.8 419.533 136.5 422.8 130.9C426.3 125.067 428.05 120.633 428.05 117.6C428.05 115.033 427.233 113.283 425.6 112.35C424.2 111.417 422.333 110.95 420 110.95C416.267 110.95 412.183 112.35 407.75 115.15C403.55 117.717 400.167 120.283 397.6 122.85C394.8 125.417 391.417 129.5 387.45 135.1C383.717 140.467 379.983 146.417 376.25 152.95C372.517 159.483 369.367 165.783 366.8 171.85C364.233 177.917 362.95 182.817 362.95 186.55C362.95 189.35 363.883 190.75 365.75 190.75ZM531.631 68.2499C528.364 68.2499 526.031 67.1999 524.631 65.0999C523.698 63.9333 523.231 62.4166 523.231 60.5499C523.231 56.8166 524.981 53.7833 528.481 51.4499C531.048 50.0499 533.381 49.3499 535.481 49.3499C538.981 49.3499 541.431 50.3999 542.831 52.4999C543.764 53.6666 544.231 55.1833 544.231 57.0499C544.231 60.7833 542.364 63.8166 538.631 66.1499C536.531 67.5499 534.198 68.2499 531.631 68.2499ZM470.731 203C468.398 203 466.414 202.533 464.781 201.6C463.381 200.667 462.681 198.917 462.681 196.35C462.681 193.083 463.498 189.233 465.131 184.8C466.998 180.367 468.981 175.933 471.081 171.5C473.414 167.067 475.164 163.45 476.331 160.65C477.964 157.383 479.948 153.183 482.281 148.05C484.848 142.683 487.181 137.667 489.281 133C491.614 128.1 493.248 124.717 494.181 122.85C490.914 126.35 486.948 130.783 482.281 136.15C477.848 141.283 473.648 146.3 469.681 151.2C465.714 156.1 462.681 159.95 460.581 162.75C459.881 163.683 459.298 164.15 458.831 164.15C458.364 164.15 458.131 163.567 458.131 162.4C458.131 160.533 458.714 158.783 459.881 157.15C464.314 151.55 469.214 145.25 474.581 138.25C480.181 131.25 485.198 124.833 489.631 119C494.064 112.933 496.864 108.967 498.031 107.1C500.598 106.633 504.331 105.933 509.231 105C514.364 104.067 517.864 102.783 519.731 101.15C520.431 100.45 521.131 100.1 521.831 100.1C522.298 100.1 522.531 100.567 522.531 101.5C522.764 102.2 522.531 103.017 521.831 103.95C520.431 105.583 517.981 109.55 514.481 115.85C510.981 122.15 507.248 129.15 503.281 136.85C499.548 144.317 496.048 151.083 492.781 157.15C489.514 163.45 486.714 169.517 484.381 175.35C482.048 181.183 480.881 185.383 480.881 187.95C480.881 191.217 482.514 192.85 485.781 192.85C488.814 192.85 492.664 190.983 497.331 187.25C502.231 183.517 507.131 179.083 512.031 173.95C516.931 168.583 521.248 163.683 524.981 159.25C526.148 157.85 527.548 156.217 529.181 154.35C531.048 152.25 532.214 150.967 532.681 150.5C533.148 150.967 533.381 151.783 533.381 152.95C533.148 154.583 532.564 156.217 531.631 157.85C530.698 159.25 529.764 160.533 528.831 161.7C523.931 167.767 518.564 174.067 512.731 180.6C506.898 186.9 500.481 192.267 493.481 196.7C486.481 200.9 478.898 203 470.731 203Z" fill="#00104E" fill-opacity="0.4"/>
</svg>
