<svg width="487" height="209" viewBox="0 0 487 209" fill="none" xmlns="http://www.w3.org/2000/svg">
<path d="M64.05 208.6C55.8833 208.6 47.25 207.317 38.15 204.75C29.2833 202.417 21.35 198.45 14.35 192.85C7.58329 187.25 3.03329 179.783 0.699952 170.45C0.466618 169.283 0.233285 168 -4.79519e-05 166.6C-4.79519e-05 165.2 -4.79519e-05 163.8 -4.79519e-05 162.4C-4.79519e-05 155.167 1.63329 148.167 4.89995 141.4C8.16662 134.633 12.1333 129.5 16.8 126H17.15C17.6166 126 18.2 126.583 18.9 127.75C19.8333 128.683 19.8333 129.383 18.9 129.85C16.5666 132.183 14.8166 134.867 13.65 137.9C12.7166 140.7 12.25 143.733 12.25 147C12.25 151.433 12.95 155.983 14.35 160.65C15.9833 165.083 17.9666 168.933 20.3 172.2C26.1333 180.367 34.1833 186.9 44.45 191.8C54.95 196.467 65.2166 198.8 75.25 198.8C89.0166 198.8 99.6333 194.717 107.1 186.55C114.8 178.383 118.65 168.35 118.65 156.45C118.65 149.217 117.25 141.983 114.45 134.75C110.717 124.717 105.7 114.917 99.4 105.35C93.3333 95.5499 87.7333 85.9833 82.6 76.6499C78.1666 68.2499 75.95 59.7333 75.95 51.0999C75.95 41.9999 78.75 33.2499 84.35 24.8499C89.95 17.3833 97.3 11.4333 106.4 6.99993C115.733 2.33327 125.183 -6.1512e-05 134.75 -6.1512e-05C141.283 -6.1512e-05 147.583 1.1666 153.65 3.49994C159.717 5.83327 165.2 9.68327 170.1 15.0499C171.5 17.1499 172.2 19.8333 172.2 23.0999C172.2 27.7666 171.267 31.3833 169.4 33.9499C167.3 36.9833 164.967 40.9499 162.4 45.8499C159.833 50.7499 158.317 54.1333 157.85 55.9999C157.383 56.2333 156.217 56.6999 154.35 57.3999C152.717 57.8666 151.667 57.7499 151.2 57.0499C152.133 55.1833 153.417 51.7999 155.05 46.8999C156.683 41.9999 157.5 37.5666 157.5 33.5999C157.5 31.0333 157.383 28.2333 157.15 25.1999C157.15 21.9333 155.633 19.1333 152.6 16.8C149.8 14.2333 146.183 12.0166 141.75 10.1499C137.317 8.28328 131.95 7.34995 125.65 7.34995C112.817 7.34995 103.017 11.0833 96.25 18.55C89.4833 26.0166 86.1 34.1833 86.1 43.0499C86.1 47.4833 87.0333 51.9166 88.9 56.3499C92.4 64.7499 97.3 72.6833 103.6 80.1499C109.9 87.6166 116.083 95.3166 122.15 103.25C128.45 110.95 133.35 119.35 136.85 128.45C139.183 134.517 140.35 140.7 140.35 147C140.35 156.1 138.017 164.383 133.35 171.85C128.917 179.317 122.85 185.85 115.15 191.45C107.683 196.817 99.5166 201.017 90.65 204.05C81.7833 207.083 72.9166 208.6 64.05 208.6ZM204.11 197.75C201.777 197.75 199.793 197.283 198.16 196.35C196.527 195.417 195.71 193.667 195.71 191.1C195.71 187.833 196.527 184.1 198.16 179.9C199.793 175.7 201.66 171.617 203.76 167.65C205.86 163.45 207.727 160.067 209.36 157.5C201.193 166.133 192.677 174.3 183.81 182C179.377 185.733 174.477 189.233 169.11 192.5C163.743 195.767 158.027 197.4 151.96 197.4C149.627 197.4 147.993 196.7 147.06 195.3C146.127 193.667 145.66 191.8 145.66 189.7C145.66 188.533 145.777 187.717 146.01 187.25C147.177 178.15 150.093 168.7 154.76 158.9C159.427 149.1 165.143 139.883 171.91 131.25C178.677 122.617 185.56 115.617 192.56 110.25C200.493 104.183 209.243 101.15 218.81 101.15H259.06C260.227 101.15 260.81 101.617 260.81 102.55C260.81 104.417 259.76 105.35 257.66 105.35C255.327 105.35 252.993 106.867 250.66 109.9C248.327 112.7 246.577 115.033 245.41 116.9C243.777 119.467 241.21 123.783 237.71 129.85C234.21 135.917 230.593 142.567 226.86 149.8C223.36 156.8 220.327 163.333 217.76 169.4C215.193 175.467 213.91 179.9 213.91 182.7C213.91 185.967 215.543 187.6 218.81 187.6C222.31 187.6 226.277 185.967 230.71 182.7C235.143 179.433 239.577 175.467 244.01 170.8C248.677 165.9 252.877 161.117 256.61 156.45C260.577 151.55 263.727 147.7 266.06 144.9C267.46 146.3 267.343 148.283 265.71 150.85C264.31 153.183 263.027 155.05 261.86 156.45C257.193 162.517 251.827 168.817 245.76 175.35C239.693 181.65 233.043 187.017 225.81 191.45C218.81 195.65 211.577 197.75 204.11 197.75ZM166.31 185.5C169.11 185.5 172.96 183.517 177.86 179.55C182.993 175.35 188.477 170.217 194.31 164.15C200.143 157.85 205.627 151.317 210.76 144.55C215.893 137.55 220.093 131.25 223.36 125.65C226.86 119.817 228.61 115.383 228.61 112.35C228.61 109.783 227.793 108.033 226.16 107.1C224.76 106.167 222.893 105.7 220.56 105.7C216.827 105.7 212.743 107.1 208.31 109.9C204.11 112.467 200.727 115.033 198.16 117.6C195.36 120.167 191.977 124.25 188.01 129.85C184.277 135.217 180.543 141.167 176.81 147.7C173.077 154.233 169.927 160.533 167.36 166.6C164.793 172.667 163.51 177.567 163.51 181.3C163.51 184.1 164.443 185.5 166.31 185.5ZM261.491 201.95C260.558 201.95 260.558 200.9 261.491 198.8C262.658 196.7 263.708 194.367 264.641 191.8C265.808 189.233 266.974 186.433 268.141 183.4C270.474 177.8 273.041 171.5 275.841 164.5C278.641 157.5 281.324 150.733 283.891 144.2C286.458 137.433 288.674 131.717 290.541 127.05C292.641 122.15 294.041 119 294.741 117.6C291.474 121.1 287.508 125.533 282.841 130.9C278.408 136.033 274.208 141.05 270.241 145.95C266.274 150.85 263.241 154.7 261.141 157.5C260.441 158.433 259.858 158.9 259.391 158.9C258.924 158.9 258.691 158.317 258.691 157.15C258.691 155.283 259.274 153.533 260.441 151.9C264.874 146.3 269.774 140 275.141 133C280.741 126 285.758 119.583 290.191 113.75C294.624 107.683 297.424 103.717 298.591 101.85C301.158 101.383 304.891 100.683 309.791 99.7499C314.924 98.8166 318.424 97.5333 320.291 95.8999C320.991 95.1999 321.691 94.8499 322.391 94.8499C322.858 94.8499 323.091 95.3166 323.091 96.25C323.324 96.9499 323.091 97.7666 322.391 98.7C320.991 100.333 318.541 104.183 315.041 110.25C311.774 116.083 308.158 122.617 304.191 129.85C300.458 137.083 296.958 143.617 293.691 149.45C296.491 145.717 299.524 142.1 302.791 138.6C306.058 135.1 309.208 131.717 312.241 128.45C315.041 125.65 318.891 122.15 323.791 117.95C328.691 113.75 333.824 109.9 339.191 106.4C344.558 102.9 349.224 100.917 353.191 100.45C354.124 100.217 354.941 100.1 355.641 100.1C356.574 100.1 357.274 100.1 357.741 100.1C362.874 100.1 365.441 101.967 365.441 105.7C365.441 108.5 363.924 112.233 360.891 116.9C359.258 119.467 356.691 123.783 353.191 129.85C349.924 135.683 346.541 142.1 343.041 149.1C339.774 155.867 336.858 162.283 334.291 168.35C331.958 174.183 330.791 178.5 330.791 181.3C330.791 184.567 332.424 186.2 335.691 186.2C339.658 186.2 343.974 184.217 348.641 180.25C353.541 176.283 358.791 171.267 364.391 165.2C369.991 158.9 375.591 152.25 381.191 145.25C381.658 145.717 381.891 146.533 381.891 147.7C381.891 149.333 381.308 150.967 380.141 152.6C379.208 154 378.274 155.283 377.341 156.45C375.008 159.483 371.858 163.333 367.891 168C364.158 172.433 360.308 176.867 356.341 181.3C352.374 185.5 348.758 188.883 345.491 191.45C343.158 193.083 340.124 194.833 336.391 196.7C332.658 198.567 328.924 199.5 325.191 199.5C320.991 199.5 318.074 198.45 316.441 196.35C314.808 194.017 313.991 191.217 313.991 187.95C313.991 184.217 314.691 180.25 316.091 176.05C317.491 171.85 319.008 167.883 320.641 164.15C322.508 160.183 323.908 157.267 324.841 155.4C329.041 147.233 332.891 139.533 336.391 132.3C339.891 125.067 342.341 119.933 343.741 116.9C344.441 115.5 344.791 114.333 344.791 113.4C344.791 111.767 343.508 111.65 340.941 113.05C338.374 114.45 335.224 116.55 331.491 119.35C327.991 122.15 324.724 124.95 321.691 127.75C318.658 130.317 316.674 132.067 315.741 133C307.108 142.1 299.524 152.25 292.991 163.45C286.691 174.417 281.324 185.733 276.891 197.4C273.858 197.633 270.824 198.45 267.791 199.85C264.758 201.25 262.658 201.95 261.491 201.95ZM422.518 197.75C420.185 197.75 418.202 197.283 416.568 196.35C414.935 195.417 414.118 193.667 414.118 191.1C414.118 187.833 414.935 184.1 416.568 179.9C418.202 175.7 420.068 171.617 422.168 167.65C424.268 163.45 426.135 160.067 427.768 157.5C419.602 166.133 411.085 174.3 402.218 182C397.785 185.733 392.885 189.233 387.518 192.5C382.152 195.767 376.435 197.4 370.368 197.4C368.035 197.4 366.402 196.7 365.468 195.3C364.535 193.667 364.068 191.8 364.068 189.7C364.068 188.533 364.185 187.717 364.418 187.25C365.585 178.15 368.502 168.7 373.168 158.9C377.835 149.1 383.552 139.883 390.318 131.25C397.085 122.617 403.968 115.617 410.968 110.25C418.902 104.183 427.652 101.15 437.218 101.15H477.468C478.635 101.15 479.218 101.617 479.218 102.55C479.218 104.417 478.168 105.35 476.068 105.35C473.735 105.35 471.402 106.867 469.068 109.9C466.735 112.7 464.985 115.033 463.818 116.9C462.185 119.467 459.618 123.783 456.118 129.85C452.618 135.917 449.002 142.567 445.268 149.8C441.768 156.8 438.735 163.333 436.168 169.4C433.602 175.467 432.318 179.9 432.318 182.7C432.318 185.967 433.952 187.6 437.218 187.6C440.718 187.6 444.685 185.967 449.118 182.7C453.552 179.433 457.985 175.467 462.418 170.8C467.085 165.9 471.285 161.117 475.018 156.45C478.985 151.55 482.135 147.7 484.468 144.9C485.868 146.3 485.752 148.283 484.118 150.85C482.718 153.183 481.435 155.05 480.268 156.45C475.602 162.517 470.235 168.817 464.168 175.35C458.102 181.65 451.452 187.017 444.218 191.45C437.218 195.65 429.985 197.75 422.518 197.75ZM384.718 185.5C387.518 185.5 391.368 183.517 396.268 179.55C401.402 175.35 406.885 170.217 412.718 164.15C418.552 157.85 424.035 151.317 429.168 144.55C434.302 137.55 438.502 131.25 441.768 125.65C445.268 119.817 447.018 115.383 447.018 112.35C447.018 109.783 446.202 108.033 444.568 107.1C443.168 106.167 441.302 105.7 438.968 105.7C435.235 105.7 431.152 107.1 426.718 109.9C422.518 112.467 419.135 115.033 416.568 117.6C413.768 120.167 410.385 124.25 406.418 129.85C402.685 135.217 398.952 141.167 395.218 147.7C391.485 154.233 388.335 160.533 385.768 166.6C383.202 172.667 381.918 177.567 381.918 181.3C381.918 184.1 382.852 185.5 384.718 185.5Z" fill="#00104E" fill-opacity="0.4"/>
</svg>
